# xmcd CD database file
#
# Track frame offsets:
#	150
#	14744
#	32474
#	49991
#	61023
#	75067
#	91305
#	105807
#	120804
#	136328
#	154615
#	168585
#	183079
#	198474
#	215183
#	231234
#
# Disc length: 3281 seconds
#
# Revision: 1
# Processed by: cddbd v1.5.2PL0 Copyright (c) Steve Scherf et al.
# Submitted via: CDex 1.51
#
DISCID=c00ccf10
DTITLE=Various Artist - Party Box CD2
DYEAR=2008
DGENRE=Country
TTITLE0=TIM TOUPET/Wir lassen uns das Feiern nicht verbieten (RMX 2008)
TTITLE1=OLAF HENNING/Labyrinth
TTITLE2=MIKE FENDER/Marmor, Stein und Eisen bricht - Playa Hit Mix
TTITLE3=RABAUKEN/Pizza Hut (Burger Dance)
TTITLE4=DE KÖLSCHE/Viva Colonia
TTITLE5=NORMAN/Geile Stimmung
TTITLE6=ALMKLAUSI/Oh wie verführerisch (Party-RMX)
TTITLE7=LEO COLONIA/75D
TTITLE8=GOTTLIEB WENDEHALS/Mallorca La-La-La
TTITLE9=PARTYGEIER/Wann wird s mal wieder richtig Sommer
TTITLE10=BATA ILLIC/Michaela
TTITLE11=PS-DIE PARTYSCHWEINE/Geile Party
TTITLE12=DIE PARTYGEIER/Laudato Si
TTITLE13=MARIO FELSEN/Über den Wolken (Dance Mix)
TTITLE14=WILLY ELVERS/Königin der Nacht 2000
TTITLE15=PETER WACKEL/Schwarze Natascha
EXTD=YEAR: 2008
EXTT0=
EXTT1=
EXTT2=
EXTT3=
EXTT4=
EXTT5=
EXTT6=
EXTT7=
EXTT8=
EXTT9=
EXTT10=
EXTT11=
EXTT12=
EXTT13=
EXTT14=
EXTT15=
PLAYORDER=
